<?xml version="1.0" encoding="UTF-8" standalone="no"?>
<!-- Generator: Adobe Illustrator 19.0.0, SVG Export Plug-In . SVG Version: 6.00 Build 0)  -->

<svg
   version="1.1"
   id="Layer_1"
   x="0px"
   y="0px"
   viewBox="0 0 40 40"
   xml:space="preserve"
   sodipodi:docname="typewriter-inkscape.svg"
   width="40"
   height="40"
   inkscape:version="1.2.1 (9c6d41e410, 2022-07-14, custom)"
   xmlns:inkscape="http://www.inkscape.org/namespaces/inkscape"
   xmlns:sodipodi="http://sodipodi.sourceforge.net/DTD/sodipodi-0.dtd"
   xmlns="http://www.w3.org/2000/svg"
   xmlns:svg="http://www.w3.org/2000/svg"><defs
   id="defs1091" /><sodipodi:namedview
   id="namedview1089"
   pagecolor="#ffffff"
   bordercolor="#666666"
   borderopacity="1.0"
   inkscape:showpageshadow="2"
   inkscape:pageopacity="0.0"
   inkscape:pagecheckerboard="0"
   inkscape:deskcolor="#d1d1d1"
   showgrid="false"
   inkscape:zoom="14.75"
   inkscape:cx="18.576271"
   inkscape:cy="22.40678"
   inkscape:window-width="1920"
   inkscape:window-height="1015"
   inkscape:window-x="0"
   inkscape:window-y="0"
   inkscape:window-maximized="1"
   inkscape:current-layer="Layer_1" />
<rect
   x="9.2264967"
   y="2.7375021"
   style="fill:#efefef;stroke-width:0.0703125"
   width="21.468727"
   height="17.249975"
   id="rect1032" />
<path
   style="fill:#f4ad47;stroke-width:0.0703125"
   d="M 33.22654,37.237467 H 6.6952401 c -1.39802,0 -2.53124,-1.13323 -2.53124,-2.53125 v -12.18748 c 0,-1.39802 1.13322,-2.53125 2.53124,-2.53125 H 33.22648 c 1.39802,0 2.53124,1.13323 2.53124,2.53125 v 12.18748 c 8e-5,1.39802 -1.13322,2.53125 -2.53118,2.53125 z"
   id="path1034" />
<path
   style="fill:#e8594f;stroke-width:0.0703125"
   d="m 22.63277,23.550007 h -5.34375 c -2.22637,0 -4.03123,-1.33615 -4.03123,-3.56252 v 0 h 13.40628 v 0 c -8e-5,2.22637 -1.80492,3.56252 -4.0313,3.56252 z"
   id="path1036" />
<g
   id="g1056"
   transform="matrix(0.0703125,0,0,0.0703125,1.9609001,1.9874867)">
	<path
   style="fill:#231f20"
   d="m 215.333,105.333 c 0,5.891 4.776,10.667 10.667,10.667 h 19.333 v 53.333 c 0,5.891 4.776,10.667 10.667,10.667 5.891,0 10.667,-4.776 10.667,-10.667 V 116 H 286 c 5.891,0 10.667,-4.776 10.667,-10.667 0,-5.891 -4.776,-10.666 -10.667,-10.666 h -60 c -5.891,0 -10.667,4.776 -10.667,10.666 z"
   id="path1038" />
	<path
   style="fill:#231f20"
   d="m 295.333,70.667 h 20 V 92 c 0,5.891 4.776,10.667 10.667,10.667 5.891,0 10.667,-4.776 10.667,-10.667 V 60 c 0,-5.891 -4.776,-10.667 -10.667,-10.667 h -30.667 c -5.891,0 -10.667,4.776 -10.667,10.667 10e-4,5.891 4.777,10.667 10.667,10.667 z"
   id="path1040" />
	<path
   style="fill:#231f20"
   d="m 184.667,102.667 c 5.891,0 10.667,-4.776 10.667,-10.667 V 70.667 h 20 C 221.224,70.667 226,65.891 226,60 226,54.109 221.224,49.333 215.333,49.333 H 184.666 C 178.776,49.333 174,54.109 174,60 v 32 c 0,5.891 4.776,10.667 10.667,10.667 z"
   id="path1042" />
	<path
   style="fill:#231f20"
   d="m 184.667,214.667 h 30.667 c 5.891,0 10.667,-4.776 10.667,-10.667 0,-5.891 -4.776,-10.667 -10.667,-10.667 h -20 V 172 c 0,-5.891 -4.776,-10.667 -10.667,-10.667 -5.891,0 -10.667,4.776 -10.667,10.667 v 32 c 0,5.891 4.776,10.667 10.667,10.667 z"
   id="path1044" />
	<path
   style="fill:#231f20"
   d="m 326,161.333 c -5.891,0 -10.667,4.776 -10.667,10.667 v 21.333 h -20 c -5.891,0 -10.667,4.776 -10.667,10.667 0,5.891 4.776,10.667 10.667,10.667 H 326 c 5.891,0 10.667,-4.776 10.667,-10.667 v -32 c 0,-5.891 -4.776,-10.667 -10.667,-10.667 z"
   id="path1046" />
	<path
   style="fill:#231f20"
   d="M 444.667,245.333 H 419.334 V 168 h 20 v 21.333 c 0,5.891 4.776,10.667 10.667,10.667 5.891,0 10.667,-4.776 10.667,-10.667 v -64 c 0,-5.891 -4.776,-10.667 -10.667,-10.667 -5.891,0 -10.667,4.776 -10.667,10.667 v 21.333 h -20 v -136 C 419.333,4.776 414.557,0 408.667,0 H 103.333 C 97.442,0 92.666,4.776 92.666,10.667 v 136 H 74 v -21.333 c 0,-5.891 -4.776,-10.667 -10.667,-10.667 -5.891,0 -10.667,4.776 -10.667,10.667 v 64 c 0,5.891 4.776,10.667 10.667,10.667 5.891,0 10.667,-4.777 10.667,-10.668 V 168 h 18.667 v 77.333 H 67.333 c -25.732,0 -46.667,20.935 -46.667,46.667 v 173.333 c 0,25.732 20.935,46.667 46.667,46.667 h 377.333 c 25.732,0 46.667,-20.935 46.667,-46.667 V 292 c 0,-25.732 -20.934,-46.667 -46.666,-46.667 z M 114,21.333 h 284 v 224 H 351.333 160.667 114 Z M 339.365,266.667 C 334.141,286.839 313.993,296 294,296 h -76 c -19.993,0 -40.141,-9.161 -45.365,-29.333 z M 470,465.333 c 0,13.969 -11.364,25.333 -25.333,25.333 H 67.333 C 53.364,490.667 42,479.303 42,465.333 V 292 c 0,-13.969 11.364,-25.333 25.333,-25.333 h 36 47.56 c 2.309,13.727 9.099,25.805 19.708,34.711 12.259,10.289 29.092,15.956 47.399,15.956 h 76 c 18.307,0 35.139,-5.667 47.399,-15.956 10.611,-8.907 17.4,-20.984 19.708,-34.711 h 47.56 36 C 458.636,266.667 470,278.031 470,292 Z"
   id="path1048" />
	<path
   style="fill:#231f20"
   d="m 145.333,368 h 221.333 c 5.891,0 10.667,-4.776 10.667,-10.667 0,-5.891 -4.776,-10.667 -10.667,-10.667 H 145.333 c -5.891,0 -10.667,4.776 -10.667,10.667 0,5.891 4.777,10.667 10.667,10.667 z"
   id="path1050" />
	<path
   style="fill:#231f20"
   d="M 366.667,432 H 145.333 c -5.891,0 -10.667,4.776 -10.667,10.667 0,5.891 4.776,10.667 10.667,10.667 h 221.333 c 5.891,0 10.667,-4.776 10.667,-10.667 0,-5.891 -4.776,-10.667 -10.666,-10.667 z"
   id="path1052" />
	<path
   style="fill:#231f20"
   d="M 404.667,389.333 H 107.333 c -5.891,0 -10.667,4.776 -10.667,10.667 0,5.891 4.776,10.667 10.667,10.667 h 297.333 c 5.891,0 10.667,-4.776 10.667,-10.667 0,-5.891 -4.776,-10.667 -10.666,-10.667 z"
   id="path1054" />
</g>
<g
   id="g1058"
   transform="matrix(0.0703125,0,0,0.0703125,237.99954,238)">
</g>
<g
   id="g1060"
   transform="matrix(0.0703125,0,0,0.0703125,237.99954,238)">
</g>
<g
   id="g1062"
   transform="matrix(0.0703125,0,0,0.0703125,237.99954,238)">
</g>
<g
   id="g1064"
   transform="matrix(0.0703125,0,0,0.0703125,237.99954,238)">
</g>
<g
   id="g1066"
   transform="matrix(0.0703125,0,0,0.0703125,237.99954,238)">
</g>
<g
   id="g1068"
   inkscape:label="g1068"
   style="display:inline"
   transform="matrix(0.0703125,0,0,0.0703125,237.99954,238)">
</g>
<g
   id="g1070"
   transform="matrix(0.0703125,0,0,0.0703125,237.99954,238)">
</g>
<g
   id="g1072"
   transform="matrix(0.0703125,0,0,0.0703125,237.99954,238)">
</g>
<g
   id="g1074"
   transform="matrix(0.0703125,0,0,0.0703125,237.99954,238)">
</g>
<g
   id="g1076"
   transform="matrix(0.0703125,0,0,0.0703125,237.99954,238)">
</g>
<g
   id="g1078"
   transform="matrix(0.0703125,0,0,0.0703125,237.99954,238)">
</g>
<g
   id="g1080"
   transform="matrix(0.0703125,0,0,0.0703125,237.99954,238)">
</g>
<g
   id="g1082"
   transform="matrix(0.0703125,0,0,0.0703125,237.99954,238)">
</g>
<g
   id="g1084"
   transform="matrix(0.0703125,0,0,0.0703125,237.99954,238)">
</g>
<g
   id="g1086"
   transform="matrix(0.0703125,0,0,0.0703125,237.99954,238)">
</g>
</svg>
